# xmcd
#
# Track frame offsets: 
#        150
#        12625
#        19970
#        27862
#        40767
#        49355
#        64222
#        77665
#        89237
#        99407
#        107917
#        120507
#
# Disc length: 1750 seconds
#
# Revision: 3
# Processed by: cddbd v1.5.2PL0 Copyright (c) Steve Scherf et al.
# Submitted via: ExactAudioCopyFreeDBPlugin 1.0
#
DISCID=a006d40c
DTITLE=Various Artist - A Vee-Jay Christmas
DYEAR=1992
DGENRE=Holiday
TTITLE0=Jerry Butler - Silent Night
TTITLE1=The Caravans - God Rest Ye Merry Gentlemen
TTITLE2=Charles Taylor - Joy to the World
TTITLE3=The Swan Silvertones - Go Tell It on the Mountain
TTITLE4=The Patterson Singers - Behold the Star
TTITLE5=The Original Five Blind Boys Of Alabama - White Christmas
TTITLE6=Jerry Butler - Oh, Holy Night
TTITLE7=The Swan Silvertones - Silent Night
TTITLE8=The Patterson Singers - The Birthday of a King
TTITLE9=The Original Five Blind Boys Of Alabama - Hark, The Herald Ang
TTITLE9=els Sing
TTITLE10=Charles Taylor - A Christmas Message
TTITLE11=The Gospel Clefs - Mary's Boy Child
EXTD=
EXTT0=
EXTT1=
EXTT2=
EXTT3=
EXTT4=
EXTT5=
EXTT6=
EXTT7=
EXTT8=
EXTT9=
EXTT10=
EXTT11=
PLAYORDER=
